<svg width="104" height="41" viewBox="0 0 104 41" fill="none" xmlns="http://www.w3.org/2000/svg">
<path d="M56.48 21.04C56.48 21.1733 56.4667 21.2933 56.44 21.4C56.44 21.5067 56.3733 21.6533 56.24 21.84C56.1867 21.9733 56.12 22.0933 56.04 22.2C55.96 22.28 55.8533 22.3867 55.72 22.52C55.6667 22.6267 55.56 22.7333 55.4 22.84C55.2667 22.9467 55.16 23.0267 55.08 23.08C54.9467 23.1333 54.8 23.1867 54.64 23.24C54.5067 23.2667 54.3867 23.28 54.28 23.28C53.9067 23.3333 53.5867 23.3733 53.32 23.4C53.0533 23.4 52.7733 23.4 52.48 23.4C52.2667 23.3467 52.0133 23.32 51.72 23.32C51.4533 23.2933 51.1467 23.28 50.8 23.28H46.36C45.64 23.28 44.92 23.2667 44.2 23.24C43.48 23.1867 42.76 23.16 42.04 23.16C41.88 23.16 41.6933 23.12 41.48 23.04C41.2933 22.96 41.1333 22.8533 41 22.72C40.7067 22.5067 40.4933 22.2133 40.36 21.84C40.3067 21.6533 40.24 21.4933 40.16 21.36C40.1067 21.2 40.0533 21.0267 40 20.84C40 20.6267 39.9867 20.4267 39.96 20.24C39.9333 20.0267 39.92 19.8133 39.92 19.6V17.84V15.6V13.52V11.6V10.48V9.28C39.9733 9.09333 40 8.90667 40 8.72C40.0267 8.50667 40.0667 8.32 40.12 8.16C40.12 7.94667 40.1467 7.76 40.2 7.6C40.28 7.41333 40.3733 7.22667 40.48 7.04C40.5333 6.85333 40.6267 6.70667 40.76 6.6C40.92 6.49333 41.08 6.37333 41.24 6.24C41.4267 6.13333 41.6 6.05333 41.76 6C41.92 5.94667 42.12 5.88 42.36 5.8C42.52 5.8 42.68 5.82667 42.84 5.88C43.0267 5.93333 43.2133 5.98666 43.4 6.04C43.6133 6.09333 43.7733 6.18666 43.88 6.32C44.0133 6.42666 44.1467 6.54666 44.28 6.68C44.7067 7.45333 44.92 8.32 44.92 9.28V11.92H52.04V10.4V8.92C52.04 8.70667 52.04 8.46667 52.04 8.2C52.0667 7.93333 52.1333 7.66666 52.24 7.4C52.32 7.10667 52.4133 6.86667 52.52 6.68C52.6533 6.46667 52.8267 6.29333 53.04 6.16C53.2 6.05333 53.3733 5.97333 53.56 5.92C53.7467 5.84 53.9867 5.8 54.28 5.8C54.4933 5.8 54.7067 5.82667 54.92 5.88C55.1333 5.93333 55.3333 5.98666 55.52 6.04C55.7333 6.28 55.9467 6.61333 56.16 7.04C56.2133 7.25333 56.2667 7.46667 56.32 7.68C56.3733 7.86667 56.4 8.06667 56.4 8.28C56.4533 8.54667 56.48 8.8 56.48 9.04C56.48 9.28 56.48 9.53333 56.48 9.8V21.04ZM65.44 32.88C65.6 32.9333 65.7467 32.9733 65.88 33C66.04 33.0533 66.1867 33.1067 66.32 33.16C66.4267 33.24 66.5333 33.32 66.64 33.4C66.7467 33.5067 66.8267 33.6133 66.88 33.72C67.12 33.8533 67.24 34.08 67.24 34.4C67.4267 35.3867 67.2667 36.16 66.76 36.72C66.4667 37.04 66.0933 37.2667 65.64 37.4C65.4267 37.48 65.2933 37.52 65.24 37.52H65.08H45.8C44.68 37.52 43.7867 37.3733 43.12 37.08C42.8533 36.8933 42.64 36.68 42.48 36.44C42.32 36.2267 42.24 35.96 42.24 35.64V30.28V29.76V28.96V28.16V27.6C42.2933 27.3333 42.3867 27.0667 42.52 26.8C42.6533 26.5333 42.8267 26.3333 43.04 26.2C43.5467 25.88 44.1067 25.72 44.72 25.72H45.28C45.3333 25.72 45.4 25.7333 45.48 25.76C45.5867 25.76 45.6667 25.7867 45.72 25.84C45.88 25.8933 46.0267 25.96 46.16 26.04C46.32 26.0933 46.4667 26.2133 46.6 26.4C46.7067 26.5333 46.7867 26.6533 46.84 26.76C46.92 26.8667 46.9867 27 47.04 27.16C47.0933 27.3467 47.1467 27.5867 47.2 27.88C47.2533 28.1733 47.2933 28.44 47.32 28.68C47.3467 28.92 47.36 29.0933 47.36 29.2C47.36 29.3067 47.3467 29.48 47.32 29.72C47.32 29.9333 47.32 30.28 47.32 30.76C47.32 31.2133 47.3467 31.9067 47.4 32.84L65.44 32.88ZM52.04 15.6C49.6933 15.6 47.9067 15.5733 46.68 15.52C45.48 15.4667 44.8533 15.4933 44.8 15.6L44.76 18.96L52.04 19.04V15.6ZM67.6 22.92C67.5467 23.56 67.36 24.1067 67.04 24.56C66.9067 24.8 66.72 24.9867 66.48 25.12C66.1067 25.3333 65.6667 25.44 65.16 25.44C64.6533 25.44 64.2133 25.2933 63.84 25C63.52 24.8133 63.2933 24.56 63.16 24.24C63.0267 24.0267 62.92 23.8133 62.84 23.6C62.76 23.36 62.72 23.1333 62.72 22.92C62.6667 22.6267 62.6267 22.36 62.6 22.12C62.6 21.88 62.6 21.6133 62.6 21.32V19.92V18.48V16.52V14.48V11.92V10.04V9.52V8.6C62.6 8.44 62.6133 8.26666 62.64 8.08C62.6933 7.86667 62.72 7.66667 62.72 7.48C62.7733 7.29333 62.84 7.12 62.92 6.96C63 6.8 63.1467 6.61333 63.36 6.4C63.4933 6.26667 63.6533 6.16 63.84 6.08C64.0533 5.97333 64.2267 5.88 64.36 5.8C64.5733 5.74667 64.7867 5.70667 65 5.68C65.24 5.62666 65.48 5.62666 65.72 5.68C66.52 5.81333 67.04 6.14667 67.28 6.68C67.4667 7.05333 67.5733 7.44 67.6 7.84C67.6267 8.24 67.64 8.6 67.64 8.92V10.4V17.44V20.8C67.64 21.12 67.64 21.4533 67.64 21.8C67.64 22.1467 67.6267 22.52 67.6 22.92ZM77.2425 24.28C77.4025 24.12 77.5492 23.9333 77.6825 23.72C77.8425 23.48 77.9625 23.32 78.0425 23.24V14.2C77.9092 14.2533 77.7892 14.2667 77.6825 14.24C77.5758 14.2133 77.4558 14.2 77.3225 14.2H76.2425C75.3092 14.2 74.4958 14.1867 73.8025 14.16C73.1358 14.1333 72.7092 14.0933 72.5225 14.04C72.0425 13.9333 71.6292 13.76 71.2825 13.52C70.9625 13.2533 70.7225 12.88 70.5625 12.4C70.5092 12.2133 70.4692 12.04 70.4425 11.88C70.4158 11.72 70.4292 11.5333 70.4825 11.32C70.4825 11.0533 70.6158 10.72 70.8825 10.32C70.9625 10.1867 71.0825 10.0667 71.2425 9.96C71.4025 9.85333 71.5625 9.76 71.7225 9.68C71.8825 9.54667 72.0425 9.46667 72.2025 9.44C72.3625 9.38667 72.5225 9.33333 72.6825 9.28H77.9625C77.9625 8.98667 77.9758 8.58667 78.0025 8.08C78.0292 7.54667 78.0425 7.16 78.0425 6.92C78.0958 6.57333 78.1758 6.26667 78.2825 6C78.3892 5.70667 78.5092 5.44 78.6425 5.2C78.9625 4.69333 79.4292 4.36 80.0425 4.2C80.3358 4.06667 80.6292 4.01333 80.9225 4.04C81.2425 4.06666 81.5492 4.14666 81.8425 4.28C82.0558 4.36 82.2425 4.48 82.4025 4.64C82.5892 4.77333 82.7225 4.93333 82.8025 5.12C83.1225 5.49333 83.3225 5.86667 83.4025 6.24C83.4558 6.45333 83.4958 6.68 83.5225 6.92C83.5492 7.16 83.5625 7.4 83.5625 7.64V9.28H86.0025C86.5358 9.28 87.0692 9.29333 87.6025 9.32C88.1625 9.34667 88.6292 9.38667 89.0025 9.44C89.3758 9.52 89.7092 9.66667 90.0025 9.88C90.3225 10.0667 90.5892 10.3333 90.8025 10.68C91.0158 11.0267 91.1225 11.4 91.1225 11.8C91.2025 12.0933 91.1492 12.4267 90.9625 12.8C90.6425 13.4133 90.0158 13.8267 89.0825 14.04C88.7892 14.0933 88.4558 14.12 88.0825 14.12C87.7358 14.12 87.3625 14.1467 86.9625 14.2C86.5358 14.2 86.0292 14.2133 85.4425 14.24C84.8558 14.2667 84.2292 14.2533 83.5625 14.2C83.5625 14.4133 83.5492 14.6667 83.5225 14.96C83.5225 15.2533 83.5225 15.5467 83.5225 15.84C83.5225 16.1333 83.5225 16.4133 83.5225 16.68C83.5225 16.92 83.5358 17.12 83.5625 17.28V21.68C83.5625 21.8133 83.5492 21.9467 83.5225 22.08C83.4958 22.1867 83.5092 22.32 83.5625 22.48V23.12C83.6958 23.2267 83.8158 23.3733 83.9225 23.56C84.0558 23.72 84.2292 23.9067 84.4425 24.12C84.6292 24.28 84.7758 24.44 84.8825 24.6C85.0158 24.76 85.1492 24.9067 85.2825 25.04C85.4158 25.2 85.5358 25.36 85.6425 25.52C85.7758 25.68 85.9225 25.84 86.0825 26C86.2158 26.1333 86.3492 26.2933 86.4825 26.48C86.6158 26.6667 86.7625 26.84 86.9225 27C87.0025 27.1333 87.0825 27.2533 87.1625 27.36C87.2425 27.4667 87.3225 27.56 87.4025 27.64C87.5625 27.88 87.6958 28.1067 87.8025 28.32C88.0692 28.64 88.3225 28.9733 88.5625 29.32C88.8025 29.64 89.0425 30.0133 89.2825 30.44C89.5758 30.8133 89.8025 31.2 89.9625 31.6C90.1492 31.9733 90.2825 32.3467 90.3625 32.72C90.4425 33.0933 90.4425 33.48 90.3625 33.88C90.2825 34.28 90.0958 34.64 89.8025 34.96C89.4292 35.28 88.9358 35.44 88.3225 35.44C88.0292 35.44 87.7492 35.4 87.4825 35.32C87.2425 35.2667 86.9758 35.1733 86.6825 35.04C86.4158 34.88 86.1758 34.7067 85.9625 34.52C85.7758 34.36 85.5758 34.2 85.3625 34.04C85.1225 33.8 84.8958 33.5333 84.6825 33.24C84.4692 32.9733 84.2558 32.72 84.0425 32.48C83.8292 32.24 83.6158 31.9867 83.4025 31.72C83.2158 31.4267 83.0158 31.1333 82.8025 30.84C82.5092 30.5467 82.1892 30.16 81.8425 29.68C81.6825 29.44 81.4958 29.24 81.2825 29.08C81.0958 28.8933 80.9225 28.72 80.7625 28.56C80.6025 28.7733 80.4425 28.9867 80.2825 29.2C80.1225 29.3867 79.9625 29.5867 79.8025 29.8C79.6158 30.0133 79.4425 30.2133 79.2825 30.4C79.1225 30.5867 78.9625 30.7867 78.8025 31C78.6425 31.2667 78.4558 31.5333 78.2425 31.8C78.0558 32.0667 77.8558 32.32 77.6425 32.56C77.4825 32.8267 77.2958 33.0933 77.0825 33.36C76.8958 33.6267 76.6692 33.88 76.4025 34.12C75.8692 34.6533 75.3625 35.0133 74.8825 35.2C74.4292 35.4133 73.9625 35.52 73.4825 35.52C73.3492 35.52 73.2158 35.52 73.0825 35.52C72.9758 35.52 72.8558 35.4933 72.7225 35.44C72.1625 35.28 71.7492 34.92 71.4825 34.36C71.2958 33.9333 71.2425 33.5067 71.3225 33.08C71.3758 32.8133 71.4292 32.5733 71.4825 32.36C71.5358 32.12 71.6292 31.92 71.7625 31.76C71.8425 31.5467 71.9358 31.3467 72.0425 31.16C72.1492 30.9467 72.2692 30.7333 72.4025 30.52C72.5358 30.36 72.6558 30.1867 72.7625 30C72.8958 29.8133 73.0558 29.6267 73.2425 29.44C73.3225 29.36 73.4025 29.2667 73.4825 29.16C73.5625 29.0533 73.6425 28.96 73.7225 28.88L74.2025 28.16C74.2825 27.9733 74.3758 27.8267 74.4825 27.72C74.5892 27.5867 74.7492 27.3733 74.9625 27.08C75.1758 26.84 75.3758 26.6 75.5625 26.36C75.7492 26.12 75.9225 25.8933 76.0825 25.68C76.2958 25.44 76.4958 25.2 76.6825 24.96C76.8958 24.72 77.0825 24.4933 77.2425 24.28ZM99.6825 17.88C99.8158 17.88 99.9358 17.8933 100.043 17.92C100.176 17.9467 100.309 17.96 100.443 17.96C100.576 17.9867 100.723 18.0133 100.883 18.04C101.043 18.04 101.203 18.0533 101.363 18.08C101.656 18.1333 101.949 18.24 102.243 18.4C102.536 18.5333 102.749 18.7467 102.883 19.04C103.069 19.3333 103.163 19.68 103.163 20.08C103.163 20.2933 103.149 20.4933 103.123 20.68C103.123 20.84 103.096 21.0267 103.043 21.24C102.989 21.4533 102.923 21.68 102.843 21.92C102.789 22.16 102.669 22.3467 102.483 22.48C102.109 22.7467 101.749 22.92 101.403 23C100.976 23.0533 100.456 23.0667 99.8425 23.04C99.2292 23.0133 98.7092 23.0133 98.2825 23.04C98.2558 23.04 98.2292 23.0533 98.2025 23.08H98.1625L98.1225 23.12V23.24C98.1225 23.56 98.1225 23.9467 98.1225 24.4C98.1225 24.8267 98.1225 25.28 98.1225 25.76C98.1225 26.2133 98.1225 26.6667 98.1225 27.12C98.1225 27.5467 98.1225 27.9333 98.1225 28.28C98.1758 29.6667 98.1758 31.0267 98.1225 32.36V32.92C98.1225 33.2667 98.1092 33.64 98.0825 34.04C98.0825 34.4667 98.0558 34.88 98.0025 35.28C97.9492 35.68 97.8558 36.0533 97.7225 36.4C97.5892 36.7733 97.4025 37.08 97.1625 37.32C96.8425 37.6933 96.4158 37.88 95.8825 37.88C95.8825 37.88 95.8558 37.8667 95.8025 37.84C95.1625 37.8133 94.6425 37.6267 94.2425 37.28C93.8692 36.9333 93.5758 36.5067 93.3625 36C93.1758 35.4933 93.0558 34.96 93.0025 34.4C92.9492 33.8667 92.9225 33.3867 92.9225 32.96V9.2C92.9225 9.17333 92.9225 9.05333 92.9225 8.84C92.9225 8.6 92.9492 8.33333 93.0025 8.04C93.0558 7.72 93.1358 7.4 93.2425 7.08C93.3758 6.73333 93.5492 6.45333 93.7625 6.24C93.9492 6.05333 94.2158 5.92 94.5625 5.84C94.9358 5.73333 95.2692 5.68 95.5625 5.68C96.1492 5.68 96.6425 5.88 97.0425 6.28C97.4158 6.65333 97.6292 7.05333 97.6825 7.48C97.7625 7.88 97.8292 8.30667 97.8825 8.76C97.9092 8.86667 97.9225 9.02666 97.9225 9.24C97.9758 9.69333 98.0025 10.16 98.0025 10.64C98.0292 11.12 98.0558 11.6 98.0825 12.08C98.0825 12.3733 98.0825 12.6667 98.0825 12.96C98.1092 13.2267 98.1225 13.5067 98.1225 13.8C98.0958 13.96 98.0825 14.12 98.0825 14.28C98.1092 14.4133 98.1225 14.5467 98.1225 14.68V16.92C98.1225 17.0533 98.1225 17.2 98.1225 17.36C98.1225 17.52 98.1492 17.6667 98.2025 17.8C98.2025 17.8267 98.3358 17.84 98.6025 17.84C98.8692 17.84 99.0158 17.84 99.0425 17.84C99.2825 17.8933 99.4692 17.9067 99.6025 17.88H99.6825Z" fill="white"/>
<path d="M16.4998 12.5394C25.6125 12.5787 33.1102 7.42677 33.0709 16.5394C33.0316 25.652 25.6125 33.0073 16.4998 32.968C7.38723 32.9287 0.0318863 25.5096 0.0712201 16.3969C0.110554 7.28433 7.38723 12.5 16.4998 12.5394Z" fill="white"/>
<rect x="12" y="12" width="4" height="6" fill="black"/>
<rect x="17" y="12" width="4" height="6" fill="black"/>
</svg>
